<?xml version="1.0" encoding="utf-8"?>
<!-- Generator: Adobe Illustrator 27.4.0, SVG Export Plug-In . SVG Version: 6.00 Build 0)  -->
<svg version="1.1" id="Calque_1" xmlns="http://www.w3.org/2000/svg" xmlns:xlink="http://www.w3.org/1999/xlink" x="0px" y="0px"
	 viewBox="0 0 807 192" style="enable-background:new 0 0 807 192;" xml:space="preserve">
<style type="text/css">
	.st0{fill:#FFFFFF;}
	.st1{fill:#027FBC;}
</style>
<g>
	<path class="st0" d="M231.91,106.8h0.36c2.03-3.68,4.17-7.25,6.28-10.48L256.21,70h32.48l-31.22,35.35l35.64,51.77h-33.27
		l-21.06-35.79l-6.86,8.64v27.15h-27.09V30.75h27.09V106.8z"/>
	<path class="st0" d="M319.69,122.27c0.81,11.24,11.91,16.58,24.55,16.58c9.16,0,16.67-1.23,23.97-3.69l3.65,18.33
		c-9.01,3.67-19.88,5.51-31.56,5.51c-29.51,0-46.46-17.19-46.46-44.34c0-22.14,13.8-46.61,43.91-46.61c28.24,0,38.9,21.95,38.9,43.5
		c0,4.72-0.49,8.72-0.97,10.73H319.69z M351.48,103.72c0.05-6.52-2.87-17.66-15.19-17.66c-11.44,0-16.08,10.45-16.83,17.66H351.48z"
		/>
	<path class="st0" d="M392.69,133.52c4.93,3.03,15.34,6.48,23.22,6.48c8.17,0,11.67-2.75,11.67-7.2c0-4.51-2.77-6.7-12.78-10.07
		c-18.11-5.96-24.93-15.81-24.83-26.04c0-16.36,13.81-28.65,35.42-28.65c10.19,0,19.21,2.39,24.54,5.08l-4.72,18.65
		c-3.92-2.06-11.51-4.92-18.87-4.92c-6.61,0-10.4,2.63-10.4,7.02c0,4.17,3.46,6.38,14.13,10.06c16.53,5.61,23.46,14.12,23.56,26.82
		c0,16.25-12.68,28.24-37.64,28.24c-11.36,0-21.56-2.57-28.21-6.13L392.69,133.52z"/>
	<path class="st0" d="M535.42,154.94c-4.88,2.25-13.96,4.05-24.26,4.05c-28.15,0-46.08-17.23-46.08-44.59
		c0-25.47,17.42-46.29,49.81-46.29c7.17,0,15.02,1.3,20.67,3.43l-4.22,20.12c-3.27-1.46-8.02-2.77-15.16-2.77
		c-14.32,0-23.5,10.16-23.4,24.42c0,16,10.74,24.49,23.84,24.49c6.47,0,11.44-1.14,15.6-2.83L535.42,154.94z"/>
	<path class="st0" d="M550.31,98.72c0-12.79-0.23-21.21-0.71-28.72h23.27l0.99,16.13h0.67c4.47-12.74,15.07-18.08,23.51-18.08
		c2.5,0,3.77,0.06,5.79,0.51v25.47c-2.1-0.44-4.28-0.76-7.32-0.76c-9.95,0-16.74,5.28-18.57,13.75c-0.34,1.72-0.5,3.83-0.5,6.03
		v44.08h-27.12V98.72z"/>
	<path class="st0" d="M665.58,157.12l-1.6-8.66h-0.58c-5.68,6.94-14.57,10.62-24.88,10.62c-17.74,0-28.16-12.74-28.16-26.65
		c0-22.7,20.3-33.45,51.13-33.41V97.9c0-4.63-2.49-11.25-15.95-11.22c-8.88,0-18.21,3.02-24.01,6.5l-4.99-17.33
		c6.07-3.47,17.94-7.81,33.86-7.81c29,0,38.18,17.14,38.18,37.6v30.38c0,8.31,0.44,16.21,1.39,21.1H665.58z M662.3,115.92
		c-14.25-0.08-25.27,3.36-25.27,13.73c0,7.02,4.59,10.43,10.75,10.43c6.62,0,12.23-4.42,14.01-10.01c0.41-1.4,0.5-3.09,0.5-4.63
		V115.92z"/>
	<path class="st0" d="M709.98,99.28c0-11.45-0.34-21.11-0.71-29.28h23.54l1.25,12.2h0.36c6.46-9.2,16.37-14.15,29.01-14.15
		c19.06,0,36.19,16.58,36.19,44.38c0,31.76-20.24,46.66-39.62,46.66c-10.4,0-18.73-4.18-22.58-9.94h-0.36v43.22h-27.09V99.28z
		 M737.07,119.83c0,2.03,0.16,3.93,0.55,5.65c1.75,7.25,8,12.85,15.83,12.85c11.69,0,18.69-9.86,18.69-24.64
		c0-13.85-6.2-24.44-18.26-24.44c-7.66,0-14.55,5.79-16.19,13.69c-0.4,1.54-0.61,3.19-0.61,4.84V119.83z"/>
</g>
<rect x="8" y="9" class="st0" width="165" height="162"/>
<path class="st1" d="M171.67,0.58H13.78c-7.46-0.1-13.6,5.86-13.7,13.33c0,0,0,0,0,0v159.76c0.1,7.46,6.24,13.43,13.7,13.33
	c0,0,0,0,0,0h157.89c7.46,0.1,13.6-5.86,13.7-13.33c0,0,0,0,0,0V13.91C185.27,6.45,179.14,0.48,171.67,0.58
	C171.67,0.58,171.67,0.58,171.67,0.58z M56.28,156.61H28.32V72.73h27.96V156.61z M42.3,60.98L42.3,60.98
	c-8.03,0-14.54-6.51-14.54-14.54S34.27,31.9,42.3,31.9c8.03-0.91,15.28,4.86,16.19,12.89S53.63,60.07,45.6,60.98
	C44.5,61.11,43.4,61.11,42.3,60.98z M157.13,156.61h-27.96v-45.02c0-11.28-4.01-18.64-14.17-18.64c-6.44,0.05-12.17,4.1-14.35,10.16
	c-0.73,2.19-1.05,4.5-0.93,6.8v46.6H71.75c0,0,0-76.24,0-83.89h27.96v11.84c5.18-8.98,14.9-14.36,25.26-13.98
	c18.64,0,32.16,12.02,32.16,37.84V156.61z"/>
</svg>
